<?xml version="1.0" standalone="no"?>
<!DOCTYPE svg PUBLIC "-//W3C//DTD SVG 20010904//EN"
 "http://www.w3.org/TR/2001/REC-SVG-20010904/DTD/svg10.dtd">
<svg version="1.0" xmlns="http://www.w3.org/2000/svg"
 width="225.000000pt" height="225.000000pt" viewBox="0 0 225.000000 225.000000"
 preserveAspectRatio="xMidYMid meet">

<g transform="translate(0.000000,225.000000) scale(0.100000,-0.100000)"
fill="#000000" stroke="none">
<path d="M492 1982 l-22 -17 2 -749 3 -749 105 -54 c98 -50 215 -98 267 -109
12 -2 35 -9 50 -15 16 -6 37 -13 48 -14 11 -2 54 -9 95 -15 141 -23 307 3 505
78 39 14 72 29 75 33 3 3 46 25 95 48 50 24 98 50 108 59 16 14 17 63 17 747
l0 732 -23 21 -23 22 -640 0 c-591 0 -641 -2 -662 -18z m704 -67 c41 -28 76
-38 177 -53 83 -13 113 -31 137 -84 14 -31 30 -47 61 -62 57 -27 75 -61 93
-176 12 -74 22 -104 45 -137 l31 -43 -31 -43 c-24 -35 -33 -63 -44 -136 -16
-105 -39 -151 -89 -175 -19 -9 -37 -16 -40 -16 -16 0 -79 -74 -94 -111 l-17
-40 -28 21 c-27 22 -29 22 -48 4 -11 -10 -28 -31 -37 -46 -20 -34 -23 -34 -61
-3 l-30 26 -33 -30 -33 -29 -33 29 -33 30 -30 -26 c-17 -14 -34 -25 -37 -25
-4 0 -15 15 -25 33 -10 18 -27 38 -38 45 -17 11 -24 9 -47 -8 l-27 -21 -18 42
c-21 50 -75 105 -111 115 -14 3 -41 23 -60 44 -30 33 -35 48 -46 126 -15 106
-23 131 -56 165 l-25 27 31 44 c24 34 34 64 46 137 21 131 45 168 118 187 14
3 26 13 26 21 0 26 40 83 68 97 15 8 64 19 109 25 78 10 154 38 168 61 9 15
21 12 61 -15z m-249 -1217 c34 -32 32 -99 -3 -127 -23 -18 -41 -21 -128 -21
-66 0 -106 4 -114 12 -13 13 -17 140 -5 151 3 4 56 7 117 7 99 0 112 -2 133
-22z m304 12 c15 -9 19 -22 19 -69 0 -41 -5 -62 -16 -72 -16 -13 -190 -24
-231 -14 -47 11 -15 48 37 43 8 0 50 0 93 0 113 3 97 22 -18 22 -75 0 -95 3
-95 14 0 21 23 26 116 26 54 0 83 4 79 10 -4 6 -53 10 -115 10 -104 0 -129 7
-115 30 8 13 221 13 246 0z m319 -10 c0 -17 -7 -20 -44 -20 -52 0 -64 -12 -68
-70 -2 -34 -7 -46 -21 -48 -17 -3 -19 2 -15 57 l3 61 -57 0 c-55 0 -76 10 -63
30 4 6 60 10 136 10 122 0 129 -1 129 -20z m68 -54 c3 -66 -9 -103 -29 -90
-10 6 -12 147 -2 158 17 17 28 -6 31 -68z m-406 -138 c15 -12 22 -44 19 -90
-2 -33 -21 -19 -21 15 0 43 -15 57 -64 57 -53 0 -64 -8 -68 -50 -4 -47 -23
-35 -22 14 1 26 7 44 19 53 24 16 116 17 137 1z m226 -5 c3 -10 -16 -13 -72
-13 -44 0 -76 -4 -76 -10 0 -6 30 -10 69 -10 72 0 97 -13 85 -44 -8 -22 -37
-28 -114 -24 -39 2 -65 8 -68 16 -3 9 17 12 77 12 104 0 106 18 4 22 -74 3
-78 4 -81 27 -2 13 2 28 10 32 20 14 161 6 166 -8z m-568 -28 c0 -40 18 -48
91 -43 43 3 44 4 47 41 4 50 32 52 32 2 0 -53 -28 -75 -96 -75 -78 0 -94 11
-94 65 0 25 5 45 10 45 6 0 10 -16 10 -35z"/>
<path d="M1113 1884 c-28 -17 -72 -30 -133 -39 -100 -15 -132 -30 -155 -74
-14 -28 -13 -30 10 -45 29 -19 31 -29 10 -49 -13 -13 -12 -17 10 -31 16 -10
26 -12 30 -5 5 7 15 4 28 -8 l22 -18 -18 22 c-20 22 -15 49 6 36 7 -4 4 5 -5
20 -26 39 -21 56 7 25 13 -16 28 -36 34 -45 5 -10 12 -15 16 -12 3 4 -2 14
-11 23 -20 21 -11 34 11 16 13 -11 14 -10 10 2 -4 11 3 19 24 26 17 6 31 8 31
5 0 -3 6 0 14 6 9 8 16 8 20 2 4 -5 2 -13 -4 -16 -6 -4 -10 -16 -8 -28 2 -16
-5 -24 -27 -32 -16 -5 -33 -14 -37 -20 -4 -5 -8 -6 -8 -2 0 4 -12 -4 -27 -18
-16 -14 -33 -23 -39 -21 -7 3 -10 -3 -7 -15 6 -22 -12 -26 -21 -4 -3 8 -12 15
-19 15 -14 0 -97 87 -97 102 0 12 -52 -16 -73 -40 -12 -13 -24 -54 -33 -113
-9 -52 -26 -115 -40 -142 l-24 -49 25 -42 c17 -30 29 -71 36 -129 13 -96 35
-142 76 -158 24 -9 30 -7 42 10 17 26 47 27 61 1 8 -15 6 -24 -9 -39 -19 -19
-19 -19 10 -47 16 -16 32 -39 35 -51 4 -13 10 -23 14 -23 18 0 20 21 4 45 -13
20 -14 28 -4 40 30 36 81 5 64 -38 -4 -10 8 -33 32 -62 33 -38 40 -43 52 -31
12 12 12 17 -2 38 -21 32 -11 58 20 58 24 0 46 -32 37 -55 -2 -6 9 -23 25 -38
l28 -27 26 27 c15 16 28 42 30 58 2 24 8 31 29 33 34 4 45 -22 23 -56 -16 -24
-16 -26 1 -39 16 -11 21 -9 36 16 9 16 26 35 37 42 13 10 17 20 12 34 -16 43
31 74 60 40 10 -12 10 -21 1 -42 -8 -18 -9 -29 -1 -37 7 -7 10 -5 10 7 0 9 16
34 35 56 29 32 32 40 19 45 -20 8 -15 46 9 60 15 9 22 7 37 -12 15 -18 23 -20
42 -13 38 15 57 44 68 107 25 139 33 166 57 195 l26 30 -22 23 c-27 29 -46 90
-55 178 -8 73 -28 108 -75 133 -27 13 -29 13 -39 -10 -13 -27 -31 -32 -50 -13
-18 18 -14 46 7 58 24 13 18 40 -18 74 -21 21 -45 28 -125 40 -71 11 -109 22
-137 40 -21 14 -40 26 -41 26 -2 -1 -22 -12 -45 -26z m182 -125 c-5 -22 -4
-29 4 -25 6 4 11 0 11 -9 0 -9 6 -15 13 -14 18 4 77 -34 77 -50 0 -7 6 -11 14
-8 13 5 23 -6 24 -27 0 -5 6 -12 12 -16 8 -5 7 -11 -4 -23 -24 -23 -19 -33 5
-11 17 16 22 16 29 4 15 -23 12 -28 -17 -44 -25 -13 -28 -12 -46 10 -17 22
-20 22 -40 9 -15 -9 -27 -11 -37 -5 -12 7 -10 11 9 18 14 5 25 18 26 30 1 12
-2 19 -7 16 -4 -3 -23 7 -42 22 -19 15 -40 29 -48 30 -7 2 -30 7 -50 12 -20 6
-39 7 -42 4 -4 -3 -6 0 -6 7 0 8 -5 9 -19 2 -13 -7 -23 -7 -34 2 -14 10 -15
16 -4 37 15 31 47 39 48 13 1 -16 2 -17 6 0 5 18 28 23 38 7 3 -5 12 -7 19 -4
8 3 16 -2 18 -13 3 -11 8 -4 12 20 5 22 14 37 23 37 11 0 13 -7 8 -31z m-75
-186 c43 -54 56 -81 67 -150 3 -18 9 -33 14 -33 17 0 27 -44 17 -72 -5 -15
-20 -34 -33 -42 -21 -14 -22 -19 -14 -58 13 -59 53 -94 118 -103 53 -7 61 -25
12 -25 -24 0 -28 -3 -24 -24 4 -20 -3 -27 -54 -52 -105 -52 -291 -43 -367 17
-18 14 -26 28 -23 40 4 15 0 19 -23 19 -50 0 -42 17 10 24 64 9 106 45 118
102 9 39 7 44 -19 67 -32 28 -39 75 -15 99 7 8 16 27 19 43 15 74 21 91 41
112 11 12 32 38 46 57 35 50 57 45 110 -21z m-410 3 c0 -3 -4 -8 -10 -11 -5
-3 -10 -1 -10 4 0 6 5 11 10 11 6 0 10 -2 10 -4z m55 -26 c17 -19 17 -19 -14
-7 -32 12 -42 27 -18 27 8 0 22 -9 32 -20z m645 -9 c0 -12 -50 -44 -57 -37 -6
6 37 45 50 46 4 0 7 -4 7 -9z m-659 -17 c20 -18 15 -44 -10 -45 -10 0 -11 -2
-3 -6 24 -9 12 -25 -16 -21 -19 3 -29 0 -29 -9 0 -8 8 -11 24 -7 13 4 23 2 23
-4 0 -12 -47 -25 -61 -16 -6 3 -8 15 -6 26 4 14 -1 22 -19 29 -32 12 -20 32
15 25 l26 -5 -27 12 c-27 11 -38 27 -18 27 5 0 28 -7 50 -16 23 -9 43 -14 47
-11 3 3 -6 9 -21 13 -14 3 -26 10 -26 15 0 15 32 10 51 -7z m682 -76 c4 -13 1
-26 -6 -30 -9 -5 -8 -11 5 -20 15 -12 17 -35 9 -90 -1 -5 -11 -8 -23 -8 -20 0
-20 -1 -5 -13 15 -10 16 -17 6 -45 -12 -35 -15 -37 -55 -22 -21 8 -24 14 -16
22 21 21 14 58 -12 68 -26 10 -42 28 -32 37 3 4 17 0 31 -7 14 -7 26 -11 28
-9 1 2 11 14 22 27 14 17 15 21 3 17 -11 -5 -15 1 -15 22 1 15 -1 34 -4 42 -2
9 6 17 21 22 37 11 37 11 43 -13z m-709 -63 c11 -8 30 -15 42 -15 13 0 26 -4
29 -10 4 -6 -15 -10 -49 -10 -31 0 -56 -4 -56 -10 0 -6 11 -8 25 -4 18 4 25 2
25 -9 0 -8 3 -29 6 -46 5 -24 3 -31 -9 -31 -9 0 -19 -5 -23 -12 -7 -11 -5 -11
39 7 7 3 18 -8 26 -26 12 -27 12 -33 0 -41 -10 -6 -6 -7 11 -3 24 6 24 6 -5
-18 -26 -22 -32 -24 -44 -12 -13 13 -12 17 4 37 11 13 13 17 5 11 -19 -18 -33
-16 -26 2 3 9 0 15 -8 15 -8 0 -19 13 -24 30 -10 27 -8 31 16 46 23 13 11 12
-24 -3 -8 -3 -11 11 -10 42 1 26 -3 49 -8 53 -5 3 -1 9 10 13 26 10 26 10 48
-6z m650 -238 c-3 -9 -12 -17 -19 -17 -16 0 -64 39 -48 40 6 0 15 -4 18 -10 3
-5 13 -10 22 -10 13 0 13 3 3 15 -7 8 -19 15 -26 15 -17 0 -18 17 -1 23 19 7
59 -36 51 -56z m21 43 c-3 -5 -10 -10 -16 -10 -5 0 -9 5 -9 10 0 6 7 10 16 10
8 0 12 -4 9 -10z"/>
<path d="M1140 1726 c0 -8 5 -18 10 -21 6 -3 10 3 10 14 0 12 -4 21 -10 21 -5
0 -10 -6 -10 -14z"/>
<path d="M1276 1703 c-6 -14 -5 -15 5 -6 7 7 10 15 7 18 -3 3 -9 -2 -12 -12z"/>
<path d="M1327 1683 c-4 -3 -7 -11 -7 -17 0 -6 5 -5 12 2 6 6 9 14 7 17 -3 3
-9 2 -12 -2z"/>
<path d="M1361 1643 c-10 -26 -10 -27 4 -9 8 11 15 23 15 28 0 15 -7 8 -19
-19z"/>
<path d="M1404 1619 c-19 -22 -19 -22 4 -8 12 8 22 17 22 21 0 12 -6 9 -26
-13z"/>
<path d="M1111 1553 c-24 -32 -44 -64 -44 -73 0 -8 -4 -21 -10 -28 -6 -7 -10
-28 -9 -47 1 -24 -3 -35 -12 -35 -17 0 -29 -27 -20 -43 4 -7 17 -23 30 -37 13
-14 37 -40 53 -57 38 -42 73 -43 109 -4 15 17 42 46 60 65 37 41 41 66 11 73
-15 4 -19 11 -15 26 7 27 -22 114 -46 141 -10 12 -25 28 -33 37 -8 9 -15 21
-15 27 0 23 -16 11 -59 -45z m85 -150 c3 -18 4 -39 1 -47 -7 -18 -38 -25 -66
-14 -21 7 -23 13 -18 47 2 21 13 51 23 66 l18 27 18 -24 c9 -12 20 -38 24 -55z"/>
<path d="M1146 1425 c-3 -9 -6 -28 -6 -42 0 -18 5 -24 18 -21 12 3 16 12 15
32 -3 36 -18 54 -27 31z"/>
<path d="M1054 1176 c-10 -22 -33 -50 -51 -61 -41 -26 -52 -54 -27 -72 39 -28
125 -46 203 -41 82 5 171 37 171 61 0 8 -20 31 -45 52 -29 23 -48 48 -52 66
-7 38 -16 43 -38 19 -24 -27 -93 -27 -121 -1 -20 18 -21 18 -40 -23z"/>
<path d="M1488 1433 c6 -2 18 -2 25 0 6 3 1 5 -13 5 -14 0 -19 -2 -12 -5z"/>
<path d="M1510 1380 c0 -5 5 -10 11 -10 5 0 7 5 4 10 -3 6 -8 10 -11 10 -2 0
-4 -4 -4 -10z"/>
<path d="M1498 1323 c6 -2 18 -2 25 0 6 3 1 5 -13 5 -14 0 -19 -2 -12 -5z"/>
<path d="M1480 1270 c0 -6 7 -10 15 -10 8 0 15 2 15 4 0 2 -7 6 -15 10 -8 3
-15 1 -15 -4z"/>
<path d="M1000 1714 c0 -6 7 -19 16 -30 14 -18 14 -18 3 6 -14 31 -19 36 -19
24z"/>
<path d="M810 1694 c0 -8 5 -12 10 -9 6 3 10 10 10 16 0 5 -4 9 -10 9 -5 0
-10 -7 -10 -16z"/>
<path d="M1480 1700 c0 -5 4 -10 9 -10 6 0 13 5 16 10 3 6 -1 10 -9 10 -9 0
-16 -4 -16 -10z"/>
<path d="M807 1034 c-8 -8 1 -24 14 -24 5 0 9 7 9 15 0 15 -12 20 -23 9z"/>
<path d="M1485 1029 c-10 -15 3 -25 16 -12 7 7 7 13 1 17 -6 3 -14 1 -17 -5z"/>
<path d="M920 940 c0 -5 5 -10 10 -10 6 0 10 5 10 10 0 6 -4 10 -10 10 -5 0
-10 -4 -10 -10z"/>
<path d="M1370 940 c0 -5 5 -10 10 -10 6 0 10 5 10 10 0 6 -4 10 -10 10 -5 0
-10 -4 -10 -10z"/>
<path d="M1060 901 c0 -6 5 -13 10 -16 6 -3 10 1 10 9 0 9 -4 16 -10 16 -5 0
-10 -4 -10 -9z"/>
<path d="M1230 895 c0 -8 5 -15 10 -15 6 0 10 7 10 15 0 8 -4 15 -10 15 -5 0
-10 -7 -10 -15z"/>
<path d="M730 640 l0 -40 99 0 c81 0 100 3 105 16 9 24 8 31 -10 48 -12 12
-37 16 -105 16 l-89 0 0 -40z"/>
</g>
</svg>
