<svg width="583" height="538" viewBox="0 0 583 538" fill="none" xmlns="http://www.w3.org/2000/svg">
<path d="M583 472.786H0V473.147H583V472.786Z" fill="#EBEBEB"/>
<path d="M191.913 495.053H153.295V495.414H191.913V495.053Z" fill="#EBEBEB"/>
<path d="M301.808 491.14H291.676V491.501H301.808V491.14Z" fill="#EBEBEB"/>
<path d="M83.5435 485.046H61.168V485.407H83.5435V485.046Z" fill="#EBEBEB"/>
<path d="M484.8 482.62H454.391V482.981H484.8V482.62Z" fill="#EBEBEB"/>
<path d="M444.001 482.62H416.67V482.981H444.001V482.62Z" fill="#EBEBEB"/>
<path d="M524.596 499.949H415.365V500.31H524.596V499.949Z" fill="#EBEBEB"/>
<path d="M276.342 408.381H51.1989C49.4352 408.377 47.7447 407.507 46.4987 405.961C45.2526 404.415 44.5527 402.32 44.5527 400.135V8.1734C44.5681 6.00156 45.2747 3.92493 46.5191 2.39457C47.7635 0.864211 49.4452 0.00372047 51.1989 0H276.342C278.108 0 279.801 0.868731 281.05 2.41508C282.298 3.96143 283 6.05873 283 8.2456V400.135C283 402.322 282.298 404.42 281.05 405.966C279.801 407.512 278.108 408.381 276.342 408.381V408.381ZM51.1989 0.288814C49.5125 0.292639 47.8962 1.12502 46.7048 2.60325C45.5134 4.08148 44.8442 6.08477 44.8442 8.1734V400.135C44.8442 402.224 45.5134 404.227 46.7048 405.706C47.8962 407.184 49.5125 408.016 51.1989 408.02H276.342C278.029 408.016 279.647 407.184 280.84 405.706C282.033 404.229 282.705 402.225 282.708 400.135V8.1734C282.705 6.08345 282.033 4.08019 280.84 2.60237C279.647 1.12455 278.029 0.292631 276.342 0.288814H51.1989Z" fill="#EBEBEB"/>
<path d="M528.559 408.381H303.404C301.639 408.377 299.947 407.507 298.7 405.962C297.452 404.416 296.749 402.321 296.746 400.135V8.1734C296.764 6.00024 297.474 3.92363 298.72 2.39367C299.966 0.863706 301.649 0.00367989 303.404 0H528.559C530.31 0.00751562 531.989 0.869686 533.231 2.39964C534.473 3.92959 535.178 6.00406 535.193 8.1734V400.135C535.193 402.317 534.495 404.41 533.251 405.956C532.008 407.501 530.32 408.373 528.559 408.381V408.381ZM303.404 0.288814C301.716 0.292631 300.099 1.12455 298.906 2.60237C297.712 4.08019 297.041 6.08345 297.038 8.1734V400.135C297.041 402.225 297.712 404.229 298.906 405.706C300.099 407.184 301.716 408.016 303.404 408.02H528.559C530.246 408.016 531.864 407.184 533.057 405.706C534.25 404.229 534.922 402.225 534.925 400.135V8.1734C534.922 6.08345 534.25 4.08019 533.057 2.60237C531.864 1.12455 530.246 0.292631 528.559 0.288814H303.404Z" fill="#EBEBEB"/>
<path d="M371.488 468.483H398.947V319.687H371.488V468.483Z" fill="#F0F0F0"/>
<path d="M272.785 472.786H393.688V468.483H272.785V472.786Z" fill="#F0F0F0"/>
<path d="M371.488 319.687H267.504V468.483H371.488V319.687Z" fill="#F5F5F5"/>
<path d="M360.69 328.033H278.301V390.763H360.69V328.033Z" fill="#F0F0F0"/>
<path d="M360.69 397.406H278.301V460.136H360.69V397.406Z" fill="#F0F0F0"/>
<path d="M340.857 338.965H298.146C296.811 338.967 295.488 338.642 294.254 338.008C293.021 337.375 291.9 336.446 290.957 335.274C290.015 334.102 289.268 332.712 288.761 331.181C288.254 329.651 287.996 328.012 288.002 326.358H350.966C350.972 328.009 350.715 329.644 350.21 331.171C349.705 332.699 348.962 334.088 348.023 335.259C347.084 336.43 345.968 337.36 344.738 337.996C343.508 338.632 342.189 338.961 340.857 338.965V338.965Z" fill="#F5F5F5"/>
<path d="M340.857 408.338H298.146C295.459 408.338 292.882 407.016 290.981 404.662C289.081 402.309 288.014 399.117 288.014 395.789H350.978C350.978 399.114 349.912 402.304 348.014 404.657C346.116 407.01 343.542 408.334 340.857 408.338V408.338Z" fill="#F5F5F5"/>
<path d="M483.634 468.483H511.094V319.687H483.634V468.483Z" fill="#F0F0F0"/>
<path d="M384.92 472.786H505.822V468.483H384.92V472.786Z" fill="#F0F0F0"/>
<path d="M483.634 319.687H379.65V468.483H483.634V319.687Z" fill="#F5F5F5"/>
<path d="M472.837 328.033H390.447V390.763H472.837V328.033Z" fill="#F0F0F0"/>
<path d="M472.837 397.406H390.447V460.136H472.837V397.406Z" fill="#F0F0F0"/>
<path d="M452.992 338.965H410.281C407.594 338.965 405.016 337.643 403.116 335.289C401.216 332.936 400.148 329.744 400.148 326.416H463.112C463.112 329.742 462.047 332.931 460.149 335.284C458.251 337.637 455.677 338.961 452.992 338.965V338.965Z" fill="#F5F5F5"/>
<path d="M452.992 408.338H410.281C407.594 408.338 405.016 407.016 403.116 404.662C401.216 402.309 400.148 399.117 400.148 395.789H463.112C463.112 399.114 462.047 402.304 460.149 404.657C458.251 407.01 455.677 408.334 452.992 408.338V408.338Z" fill="#F5F5F5"/>
<path d="M129.917 119.771L176.953 119.771V52.4339L129.917 52.4339V119.771Z" fill="#E6E6E6"/>
<path d="M124.553 119.771L175.693 119.771V52.4339L124.553 52.4339V119.771Z" fill="#F5F5F5"/>
<path d="M171.402 114.471V57.748H128.832V114.471H171.402Z" fill="white"/>
<path d="M161.095 100.723V98.6584C161.091 91.4555 158.78 84.5488 154.667 79.4556C150.555 74.3624 144.978 71.4994 139.162 71.4955V71.4955V73.5606C139.162 80.7646 141.473 87.6735 145.586 92.7676C149.699 97.8616 155.278 100.723 161.095 100.723V100.723Z" fill="#F5F5F5"/>
<path d="M334.223 246.863L511.105 246.863V41.95L334.223 41.95V246.863Z" fill="#E6E6E6"/>
<path d="M328.742 246.863L508.539 246.863V41.95L328.742 41.95V246.863Z" fill="#F0F0F0"/>
<path d="M334.223 254.17L511.105 254.17V246.863L334.223 246.863V254.17Z" fill="#E6E6E6"/>
<path d="M319.601 254.17L499.398 254.17V246.863L319.601 246.863V254.17Z" fill="#F0F0F0"/>
<path d="M500.855 235.859V52.9538L336.403 52.9538V235.859H500.855Z" fill="#FAFAFA"/>
<path d="M454.226 235.873L426.837 52.9538H381.713L409.102 235.873H454.226Z" fill="white"/>
<path d="M497.311 173.807C497.467 173.793 497.611 173.702 497.714 173.557C497.816 173.411 497.869 173.221 497.859 173.028V60.1163C497.859 59.9363 497.801 59.7636 497.698 59.6363C497.596 59.5091 497.456 59.4376 497.311 59.4376C497.166 59.4376 497.026 59.5091 496.923 59.6363C496.821 59.7636 496.763 59.9363 496.763 60.1163V173.028C496.753 173.221 496.805 173.411 496.908 173.557C497.01 173.702 497.155 173.793 497.311 173.807V173.807Z" fill="#F0F0F0"/>
<path d="M399.402 235.873L372.025 52.9538H354.43L381.807 235.873H399.402Z" fill="white"/>
<path d="M337.383 235.859V52.9538H336.403V235.859H337.383Z" fill="#E6E6E6"/>
<path opacity="0.4" d="M326.924 67.0334H503.794L504.506 57.2426H327.623L326.924 67.0334Z" fill="#E6E6E6"/>
<path opacity="0.4" d="M326.924 78.3115H503.794L504.506 68.5063H327.623L326.924 78.3115Z" fill="#E6E6E6"/>
<path opacity="0.4" d="M326.924 89.5752H503.794L504.506 79.7845H327.623L326.924 89.5752Z" fill="#E6E6E6"/>
<path opacity="0.4" d="M326.924 100.853H503.794L504.506 91.0481H327.623L326.924 100.853Z" fill="#E6E6E6"/>
<path opacity="0.4" d="M326.924 112.117H503.794L504.506 102.326H327.623L326.924 112.117Z" fill="#E6E6E6"/>
<path opacity="0.4" d="M326.924 123.395H503.794L504.506 113.59H327.623L326.924 123.395Z" fill="#E6E6E6"/>
<path opacity="0.4" d="M326.924 134.659H503.794L504.506 124.868H327.623L326.924 134.659Z" fill="#E6E6E6"/>
<path opacity="0.4" d="M326.924 145.937H503.794L504.506 136.132H327.623L326.924 145.937Z" fill="#E6E6E6"/>
<path opacity="0.4" d="M326.924 157.201H503.794L504.506 147.41H327.623L326.924 157.201Z" fill="#E6E6E6"/>
<path d="M96.5677 229.62H133.262V177.475H96.5677V229.62Z" fill="#E6E6E6"/>
<path d="M92.4164 229.62H132.025V177.475H92.4164V229.62Z" fill="#F5F5F5"/>
<path d="M128.715 225.505V181.576H95.7404V225.505H128.715Z" fill="white"/>
<path d="M120.715 204.349V202.746C120.715 201.365 120.495 199.996 120.068 198.72C119.641 197.444 119.015 196.284 118.225 195.308C117.436 194.331 116.498 193.557 115.467 193.03C114.436 192.502 113.331 192.232 112.215 192.234C109.972 192.249 107.825 193.363 106.243 195.333C104.661 197.303 103.773 199.968 103.773 202.746V204.349C103.773 207.138 104.668 209.811 106.26 211.783C107.852 213.755 110.011 214.862 112.262 214.862C114.507 214.851 116.657 213.738 118.242 211.768C119.826 209.797 120.715 207.13 120.715 204.349Z" fill="#F5F5F5"/>
<path d="M188.088 210.934H238.471V139.049H188.088V210.934Z" fill="#E6E6E6"/>
<path d="M182.375 210.934H236.967V139.049H182.375V210.934Z" fill="#F5F5F5"/>
<path d="M232.396 205.288V144.738H186.946V205.288H232.396Z" fill="white"/>
<path d="M211.571 163.771L220.199 182.284C220.392 182.697 220.493 183.165 220.493 183.642C220.493 184.119 220.391 184.587 220.199 185C220.006 185.413 219.729 185.756 219.396 185.994C219.062 186.232 218.684 186.357 218.299 186.356H201.042C200.657 186.357 200.279 186.232 199.945 185.994C199.612 185.756 199.335 185.413 199.142 185C198.949 184.587 198.848 184.119 198.848 183.642C198.848 183.165 198.949 182.697 199.141 182.284L207.77 163.771C207.964 163.361 208.242 163.021 208.575 162.784C208.909 162.548 209.286 162.423 209.67 162.423C210.054 162.423 210.432 162.548 210.765 162.784C211.099 163.021 211.376 163.361 211.571 163.771V163.771Z" fill="#F5F5F5"/>
<path d="M104.964 472.772H132.656V364.64H104.964L104.964 472.772Z" fill="#E6E6E6"/>
<path d="M110.222 472.786H104.963V454.259H115.737L110.222 472.786Z" fill="#F0F0F0"/>
<path d="M208.446 472.772H236.139V364.64H208.446V472.772Z" fill="#E6E6E6"/>
<path d="M104.976 461.407H213.041V364.64H104.976L104.976 461.407Z" fill="#F0F0F0"/>
<path d="M109.043 370.72V438.259H157.234V370.72H109.043Z" fill="#E6E6E6"/>
<path d="M160.768 370.72V438.259H208.958V370.72H160.768Z" fill="#E6E6E6"/>
<path d="M180.101 375.904H189.627C191.673 375.912 193.699 375.403 195.581 374.41C197.463 373.417 199.163 371.96 200.576 370.128H169.094C170.513 371.97 172.221 373.434 174.114 374.427C176.007 375.42 178.045 375.923 180.101 375.904V375.904Z" fill="#F0F0F0"/>
<path d="M127.886 375.904H137.424C139.47 375.911 141.495 375.402 143.378 374.409C145.26 373.416 146.959 371.96 148.373 370.128H116.891C118.309 371.967 120.016 373.429 121.907 374.422C123.798 375.415 125.832 375.919 127.886 375.904Z" fill="#F0F0F0"/>
<path d="M207.781 472.786H213.039V454.259H202.266L207.781 472.786Z" fill="#F0F0F0"/>
<path d="M179.271 350.156C179.269 351.628 179.619 353.067 180.278 354.292C180.936 355.517 181.873 356.472 182.97 357.038C184.067 357.603 185.275 357.752 186.441 357.467C187.606 357.181 188.677 356.474 189.518 355.435C190.359 354.395 190.932 353.07 191.165 351.627C191.398 350.184 191.279 348.688 190.825 347.328C190.371 345.968 189.601 344.806 188.614 343.988C187.626 343.17 186.465 342.734 185.276 342.734C183.687 342.738 182.163 343.52 181.038 344.911C179.913 346.302 179.278 348.188 179.271 350.156Z" fill="#E0E0E0"/>
<path d="M187.993 352.756C191.303 352.756 193.986 349.433 193.986 345.333C193.986 341.234 191.303 337.911 187.993 337.911C184.683 337.911 182 341.234 182 345.333C182 349.433 184.683 352.756 187.993 352.756Z" fill="#E0E0E0"/>
<path d="M149.248 351.355C149.248 352.823 149.6 354.258 150.258 355.479C150.917 356.699 151.853 357.651 152.948 358.212C154.043 358.774 155.248 358.921 156.411 358.635C157.573 358.348 158.641 357.641 159.479 356.603C160.317 355.565 160.888 354.243 161.119 352.803C161.351 351.363 161.232 349.871 160.778 348.514C160.325 347.158 159.557 345.999 158.571 345.183C157.585 344.368 156.427 343.932 155.241 343.932C153.652 343.932 152.127 344.714 151.003 346.106C149.879 347.498 149.248 349.386 149.248 351.355V351.355Z" fill="#E0E0E0"/>
<path d="M196.016 355.658C200.079 355.658 203.373 351.579 203.373 346.546C203.373 341.514 200.079 337.434 196.016 337.434C191.952 337.434 188.658 341.514 188.658 346.546C188.658 351.579 191.952 355.658 196.016 355.658Z" fill="#E0E0E0"/>
<path d="M174.084 338.156C174.082 339.959 174.511 341.722 175.318 343.223C176.125 344.723 177.274 345.893 178.618 346.585C179.962 347.277 181.442 347.459 182.87 347.109C184.298 346.759 185.61 345.893 186.64 344.619C187.67 343.345 188.372 341.722 188.657 339.954C188.942 338.186 188.796 336.353 188.24 334.687C187.683 333.021 186.74 331.597 185.53 330.595C184.32 329.593 182.897 329.059 181.441 329.059C179.493 329.062 177.625 330.022 176.246 331.727C174.868 333.431 174.09 335.743 174.084 338.156V338.156Z" fill="#E0E0E0"/>
<path d="M162.424 340.481C162.422 342.284 162.851 344.047 163.658 345.547C164.465 347.048 165.613 348.218 166.958 348.91C168.302 349.602 169.782 349.784 171.21 349.434C172.637 349.084 173.95 348.218 174.98 346.944C176.01 345.67 176.712 344.046 176.997 342.279C177.281 340.511 177.136 338.678 176.58 337.012C176.023 335.346 175.08 333.922 173.87 332.92C172.66 331.918 171.237 331.384 169.781 331.384C167.832 331.384 165.962 332.342 164.583 334.047C163.203 335.753 162.427 338.067 162.424 340.481V340.481Z" fill="#E0E0E0"/>
<path d="M167.355 347.831C167.355 349.545 167.766 351.22 168.535 352.645C169.303 354.07 170.396 355.181 171.674 355.836C172.953 356.492 174.359 356.664 175.716 356.329C177.073 355.995 178.32 355.17 179.298 353.958C180.277 352.746 180.943 351.203 181.213 349.522C181.483 347.841 181.344 346.099 180.815 344.516C180.285 342.933 179.389 341.579 178.238 340.627C177.088 339.675 175.735 339.167 174.351 339.167C172.496 339.167 170.717 340.08 169.405 341.705C168.093 343.33 167.355 345.534 167.355 347.831Z" fill="#E0E0E0"/>
<path d="M155.182 347.268C155.182 349.119 155.625 350.928 156.455 352.467C157.285 354.006 158.465 355.205 159.846 355.914C161.227 356.622 162.746 356.807 164.211 356.446C165.677 356.085 167.023 355.194 168.08 353.885C169.137 352.576 169.856 350.909 170.148 349.094C170.439 347.279 170.29 345.397 169.718 343.687C169.146 341.977 168.178 340.516 166.935 339.488C165.693 338.46 164.232 337.911 162.737 337.911C160.733 337.911 158.812 338.897 157.395 340.652C155.978 342.406 155.182 344.787 155.182 347.268V347.268Z" fill="#E0E0E0"/>
<path d="M207.746 350.156C207.746 350.156 206.93 364.597 175.366 364.597C143.802 364.597 142.975 350.156 142.975 350.156H207.746Z" fill="#F0F0F0"/>
<path d="M291.5 538C416.358 538 517.575 530.681 517.575 521.653C517.575 512.625 416.358 505.306 291.5 505.306C166.641 505.306 65.4238 512.625 65.4238 521.653C65.4238 530.681 166.641 538 291.5 538Z" fill="#F5F5F5"/>
<path d="M358.862 93.7197C357.914 89.8393 356.656 86.0855 355.107 82.5137L357.439 73.0551L342.363 54.3689L334.726 57.2571C331.842 55.3391 328.811 53.7814 325.677 52.6072L321.923 43.9428H300.585L296.842 52.6072C293.708 53.7787 290.677 55.3365 287.794 57.2571L280.157 54.3689L265.069 73.0551L267.401 82.5137C265.861 86.0889 264.607 89.8421 263.658 93.7197L256.604 98.3695V124.796L263.658 129.431C264.605 133.31 265.859 137.063 267.401 140.637L265.069 150.096L280.157 168.782L287.794 165.894C290.68 167.804 293.71 169.356 296.842 170.529L300.585 179.194H321.923L325.677 170.529C328.808 169.354 331.839 167.801 334.726 165.894L342.363 168.782L357.451 150.096L355.119 140.637C356.67 137.067 357.927 133.313 358.873 129.431L365.928 124.796V98.3695L358.862 93.7197ZM311.254 149.114C305.258 149.114 299.397 146.912 294.411 142.786C289.426 138.661 285.54 132.797 283.246 125.936C280.951 119.076 280.351 111.527 281.52 104.243C282.69 96.9603 285.578 90.2704 289.817 85.0195C294.057 79.7686 299.459 76.1928 305.34 74.7441C311.22 73.2954 317.316 74.0389 322.855 76.8806C328.395 79.7224 333.13 84.5347 336.461 90.709C339.792 96.8834 341.57 104.142 341.57 111.568C341.57 121.526 338.376 131.076 332.691 138.117C327.005 145.158 319.294 149.114 311.254 149.114V149.114Z" fill="#2F4D93"/>
<path opacity="0.2" d="M358.862 93.7197C357.914 89.8393 356.656 86.0855 355.107 82.5137L357.439 73.0551L342.363 54.3689L334.726 57.2571C331.842 55.3391 328.811 53.7814 325.677 52.6072L321.923 43.9428H300.585L296.842 52.6072C293.708 53.7787 290.677 55.3365 287.794 57.2571L280.157 54.3689L265.069 73.0551L267.401 82.5137C265.861 86.0889 264.607 89.8421 263.658 93.7197L256.604 98.3695V124.796L263.658 129.431C264.605 133.31 265.859 137.063 267.401 140.637L265.069 150.096L280.157 168.782L287.794 165.894C290.68 167.804 293.71 169.356 296.842 170.529L300.585 179.194H321.923L325.677 170.529C328.808 169.354 331.839 167.801 334.726 165.894L342.363 168.782L357.451 150.096L355.119 140.637C356.67 137.067 357.927 133.313 358.873 129.431L365.928 124.796V98.3695L358.862 93.7197ZM311.254 149.114C305.258 149.114 299.397 146.912 294.411 142.786C289.426 138.661 285.54 132.797 283.246 125.936C280.951 119.076 280.351 111.527 281.52 104.243C282.69 96.9603 285.578 90.2704 289.817 85.0195C294.057 79.7686 299.459 76.1928 305.34 74.7441C311.22 73.2954 317.316 74.0389 322.855 76.8806C328.395 79.7224 333.13 84.5347 336.461 90.709C339.792 96.8834 341.57 104.142 341.57 111.568C341.57 121.526 338.376 131.076 332.691 138.117C327.005 145.158 319.294 149.114 311.254 149.114V149.114Z" fill="white"/>
<path d="M311.254 99.1348C309.266 99.1348 307.323 99.8649 305.67 101.233C304.017 102.6 302.729 104.545 301.968 106.819C301.207 109.094 301.008 111.596 301.396 114.011C301.784 116.426 302.741 118.644 304.147 120.385C305.553 122.125 307.344 123.311 309.293 123.791C311.243 124.272 313.264 124.025 315.1 123.083C316.937 122.141 318.507 120.545 319.611 118.498C320.715 116.451 321.305 114.045 321.305 111.583C321.305 108.281 320.246 105.115 318.361 102.781C316.476 100.446 313.92 99.1348 311.254 99.1348V99.1348Z" fill="#2F4D93"/>
<path d="M510.709 135.641C509.354 130.093 507.561 124.724 505.357 119.612V119.612L508.692 106.095L487.156 79.4234L476.23 83.5679C472.117 80.8066 467.783 78.5805 463.3 76.9252V76.9252L457.948 64.4485H427.457L422.093 76.9252C417.611 78.5858 413.278 80.8117 409.162 83.5679V83.5679L398.248 79.4234L376.689 106.124L380.024 119.641C377.81 124.747 376.017 130.118 374.672 135.67L364.586 142.298V180.06L374.66 186.703C376.003 192.251 377.796 197.617 380.012 202.718L376.677 216.219L398.237 242.92L409.15 238.79C413.27 241.538 417.607 243.754 422.093 245.404L427.457 257.895H457.948L463.3 245.418C467.78 243.751 472.112 241.525 476.23 238.776L487.156 242.906L508.715 216.205L505.38 202.689C507.579 197.581 509.364 192.217 510.709 186.674V186.674L520.783 180.031V142.269L510.709 135.641ZM442.696 229.606C431.763 229.606 421.075 225.591 411.984 218.068C402.894 210.545 395.808 199.853 391.624 187.343C387.44 174.833 386.345 161.067 388.478 147.786C390.611 134.506 395.876 122.307 403.607 112.732C411.338 103.158 421.188 96.6371 431.912 93.9954C442.635 91.3538 453.75 92.7096 463.851 97.8914C473.952 103.073 482.586 111.848 488.66 123.107C494.734 134.366 497.976 147.602 497.976 161.143C497.976 170.134 496.546 179.036 493.768 187.343C490.99 195.649 486.918 203.196 481.785 209.554C476.652 215.911 470.558 220.954 463.851 224.395C457.144 227.835 449.956 229.606 442.696 229.606V229.606Z" fill="#2F4D93"/>
<path d="M442.698 102.283C433.296 102.286 424.107 105.741 416.291 112.212C408.475 118.683 402.383 127.879 398.787 138.637C395.191 149.395 394.251 161.232 396.087 172.652C397.922 184.072 402.451 194.561 409.1 202.793C415.748 211.025 424.219 216.631 433.44 218.902C442.661 221.172 452.219 220.005 460.904 215.549C469.59 211.092 477.014 203.546 482.237 193.865C487.46 184.183 490.248 172.801 490.248 161.157C490.232 145.546 485.217 130.58 476.303 119.543C467.389 108.505 455.303 102.298 442.698 102.283V102.283ZM442.698 212.191C434.548 212.193 426.58 209.203 419.802 203.597C413.024 197.991 407.741 190.022 404.62 180.697C401.499 171.372 400.682 161.111 402.27 151.21C403.859 141.31 407.783 132.215 413.545 125.077C419.307 117.938 426.65 113.076 434.643 111.106C442.637 109.136 450.923 110.145 458.453 114.007C465.983 117.87 472.419 124.411 476.947 132.803C481.476 141.196 483.893 151.063 483.893 161.157C483.88 174.685 479.537 187.654 471.814 197.221C464.092 206.788 453.621 212.171 442.698 212.191V212.191Z" fill="#2F4D93"/>
<path opacity="0.2" d="M442.698 102.283C433.296 102.286 424.107 105.741 416.291 112.212C408.475 118.683 402.383 127.879 398.787 138.637C395.191 149.395 394.251 161.232 396.087 172.652C397.922 184.072 402.451 194.561 409.1 202.793C415.748 211.025 424.219 216.631 433.44 218.902C442.661 221.172 452.219 220.005 460.904 215.549C469.59 211.092 477.014 203.546 482.237 193.865C487.46 184.183 490.248 172.801 490.248 161.157C490.232 145.546 485.217 130.58 476.303 119.543C467.389 108.505 455.303 102.298 442.698 102.283V102.283ZM442.698 212.191C434.548 212.193 426.58 209.203 419.802 203.597C413.024 197.991 407.741 190.022 404.62 180.697C401.499 171.372 400.682 161.111 402.27 151.21C403.859 141.31 407.783 132.215 413.545 125.077C419.307 117.938 426.65 113.076 434.643 111.106C442.637 109.136 450.923 110.145 458.453 114.007C465.983 117.87 472.419 124.411 476.947 132.803C481.476 141.196 483.893 151.063 483.893 161.157C483.88 174.685 479.537 187.654 471.814 197.221C464.092 206.788 453.621 212.171 442.698 212.191V212.191Z" fill="black"/>
<path d="M333.479 261.606C333.169 261.606 332.873 261.454 332.654 261.183C332.435 260.913 332.312 260.545 332.312 260.162V257.274C332.312 256.891 332.435 256.524 332.654 256.253C332.873 255.982 333.169 255.83 333.479 255.83C333.788 255.83 334.084 255.982 334.303 256.253C334.522 256.524 334.645 256.891 334.645 257.274V260.162C334.645 260.545 334.522 260.913 334.303 261.183C334.084 261.454 333.788 261.606 333.479 261.606Z" fill="#2F4D93"/>
<path d="M315.324 224.292C314.253 223.44 313.416 222.206 312.922 220.754C312.8 220.401 312.569 220.124 312.282 219.981C311.994 219.839 311.673 219.844 311.388 219.996C311.104 220.147 310.88 220.432 310.765 220.788C310.65 221.144 310.654 221.542 310.776 221.895C311.461 223.867 312.601 225.545 314.053 226.718C314.24 226.868 314.459 226.948 314.682 226.949C314.935 226.951 315.181 226.852 315.384 226.666C315.587 226.48 315.736 226.218 315.808 225.918C315.881 225.619 315.872 225.298 315.785 225.005C315.698 224.712 315.536 224.461 315.324 224.292V224.292Z" fill="#2F4D93"/>
<path d="M311.254 206.255C311.563 206.255 311.86 206.103 312.078 205.832C312.297 205.562 312.42 205.194 312.42 204.811V199.281C312.42 198.898 312.297 198.53 312.078 198.259C311.86 197.989 311.563 197.836 311.254 197.836C310.945 197.836 310.648 197.989 310.429 198.259C310.211 198.53 310.088 198.898 310.088 199.281V204.811C310.088 205.194 310.211 205.562 310.429 205.832C310.648 206.103 310.945 206.255 311.254 206.255Z" fill="#2F4D93"/>
<path d="M323.393 225.563H318.916C318.607 225.563 318.31 225.715 318.091 225.986C317.873 226.256 317.75 226.624 317.75 227.007C317.75 227.39 317.873 227.757 318.091 228.028C318.31 228.299 318.607 228.451 318.916 228.451H323.393C323.703 228.451 323.999 228.299 324.218 228.028C324.437 227.757 324.559 227.39 324.559 227.007C324.559 226.624 324.437 226.256 324.218 225.986C323.999 225.715 323.703 225.563 323.393 225.563Z" fill="#2F4D93"/>
<path d="M312.42 215.887V210.357C312.42 209.974 312.297 209.606 312.078 209.335C311.86 209.065 311.563 208.913 311.254 208.913C310.945 208.913 310.648 209.065 310.429 209.335C310.211 209.606 310.088 209.974 310.088 210.357V215.887C310.088 216.27 310.211 216.638 310.429 216.908C310.648 217.179 310.945 217.331 311.254 217.331C311.563 217.331 311.86 217.179 312.078 216.908C312.297 216.638 312.42 216.27 312.42 215.887Z" fill="#2F4D93"/>
<path d="M334.575 234.949C334.534 234.57 334.374 234.227 334.129 233.994C333.884 233.761 333.575 233.658 333.269 233.707C333.117 233.738 332.971 233.807 332.841 233.908C332.711 234.01 332.598 234.142 332.509 234.298C332.42 234.454 332.357 234.63 332.323 234.816C332.289 235.002 332.286 235.194 332.313 235.382C332.35 235.717 332.369 236.055 332.371 236.393V240.725C332.371 241.108 332.494 241.475 332.712 241.746C332.931 242.017 333.228 242.169 333.537 242.169C333.846 242.169 334.143 242.017 334.361 241.746C334.58 241.475 334.703 241.108 334.703 240.725V236.393C334.686 235.909 334.643 235.426 334.575 234.949V234.949Z" fill="#2F4D93"/>
<path d="M333.479 244.754C333.169 244.754 332.873 244.906 332.654 245.177C332.435 245.448 332.312 245.815 332.312 246.198V251.743C332.312 252.126 332.435 252.494 332.654 252.765C332.873 253.035 333.169 253.187 333.479 253.187C333.788 253.187 334.084 253.035 334.303 252.765C334.522 252.494 334.645 252.126 334.645 251.743V246.198C334.645 245.815 334.522 245.448 334.303 245.177C334.084 244.906 333.788 244.754 333.479 244.754Z" fill="#2F4D93"/>
<path d="M332.465 229.216C331.323 227.601 329.816 226.449 328.139 225.909C327.991 225.862 327.836 225.851 327.684 225.878C327.532 225.904 327.386 225.968 327.254 226.064C327.122 226.161 327.006 226.288 326.914 226.44C326.822 226.592 326.755 226.765 326.717 226.949C326.678 227.133 326.67 227.324 326.691 227.512C326.713 227.7 326.764 227.881 326.842 228.045C326.92 228.209 327.023 228.352 327.146 228.466C327.268 228.58 327.408 228.663 327.556 228.711C328.781 229.102 329.883 229.943 330.716 231.122C330.825 231.276 330.96 231.4 331.111 231.484C331.261 231.569 331.425 231.613 331.591 231.613C331.815 231.613 332.034 231.532 332.222 231.382C332.41 231.231 332.559 231.016 332.652 230.764C332.744 230.511 332.775 230.23 332.742 229.956C332.709 229.681 332.613 229.424 332.465 229.216Z" fill="#2F4D93"/>
<path d="M311.254 195.122C310.945 195.122 310.648 194.97 310.429 194.699C310.211 194.428 310.088 194.061 310.088 193.678V190.789C310.088 190.406 310.211 190.039 310.429 189.768C310.648 189.498 310.945 189.345 311.254 189.345C311.563 189.345 311.86 189.498 312.078 189.768C312.297 190.039 312.42 190.406 312.42 190.789V193.678C312.42 194.061 312.297 194.428 312.078 194.699C311.86 194.97 311.563 195.122 311.254 195.122Z" fill="#2F4D93"/>
<path d="M388.71 334.315H118.734V339.672H388.71V334.315Z" fill="#2F4D93"/>
<path d="M388.711 339.672H447.291V334.315H388.711V339.672Z" fill="#2F4D93"/>
<path opacity="0.2" d="M388.711 339.672H447.291V334.315H388.711V339.672Z" fill="black"/>
<path d="M427.723 345.405H138.299L128.621 339.672H437.401L427.723 345.405Z" fill="#2F4D93"/>
<path opacity="0.6" d="M427.723 345.405H138.299L128.621 339.672H437.401L427.723 345.405Z" fill="white"/>
<path d="M147.045 345.405V516.296H150.753L155.417 345.405H147.045Z" fill="#2F4D93"/>
<path d="M190.816 345.405V516.296H194.524L199.188 345.405H190.816Z" fill="#2F4D93"/>
<path d="M427.725 345.405V516.296H424.029L419.354 345.405H427.725Z" fill="#2F4D93"/>
<path d="M383.964 345.405V516.296H380.256L375.592 345.405H383.964Z" fill="#2F4D93"/>
<path d="M295.863 269.448L283.678 330.921L283.34 334.315H367.385L367.735 330.921L379.908 269.448H295.863Z" fill="#2F4D93"/>
<path opacity="0.3" d="M295.863 269.448L283.678 330.921L283.34 334.315H367.385L367.735 330.921L379.908 269.448H295.863Z" fill="black"/>
<path d="M377.33 269.448H293.273L281.1 330.921H365.145L377.33 269.448Z" fill="#2F4D93"/>
<path d="M363.362 328.106L374.439 272.264H295.058L283.992 328.106H363.362Z" fill="white"/>
<path d="M343.247 330.921L342.897 334.315H250.352L250.69 330.921H343.247Z" fill="#2F4D93"/>
<path opacity="0.6" d="M343.247 330.921L342.897 334.315H250.352L250.69 330.921H343.247Z" fill="white"/>
<path d="M168.417 323.138C168.358 320.938 167.663 318.838 166.458 317.221C165.252 315.604 163.618 314.578 161.852 314.329V312.669C161.851 312.572 161.834 312.478 161.802 312.39C161.771 312.302 161.726 312.223 161.669 312.157C161.613 312.091 161.546 312.04 161.474 312.006C161.401 311.972 161.323 311.957 161.246 311.961H148.653C148.575 311.957 148.497 311.972 148.424 312.006C148.35 312.039 148.283 312.09 148.226 312.156C148.168 312.222 148.122 312.301 148.089 312.389C148.057 312.477 148.038 312.572 148.035 312.669V334.329H161.852V331.961C163.621 331.715 165.258 330.688 166.464 329.067C167.67 327.446 168.363 325.341 168.417 323.138ZM161.852 329.16V317.131C163.018 317.343 164.082 318.068 164.852 319.172C165.622 320.276 166.045 321.686 166.045 323.145C166.045 324.604 165.622 326.014 164.852 327.118C164.082 328.223 163.018 328.947 161.852 329.16V329.16Z" fill="#2F4D93"/>
<path d="M404.09 334.315H415.796L412.333 302.56H404.09V334.315Z" fill="#263238"/>
<path d="M386.926 334.315H409.103L413.219 297.145H391.053L386.926 334.315Z" fill="#2F4D93"/>
<path opacity="0.3" d="M386.926 334.315H409.103L413.219 297.145H391.053L386.926 334.315Z" fill="black"/>
<path d="M383.965 334.315H407.04L411.168 297.145H388.092L383.965 334.315Z" fill="#2F4D93"/>
<path opacity="0.4" d="M404.999 331.383L408.474 300.076H390.133L386.658 331.383H404.999Z" fill="white"/>
<path d="M230.332 279.441L229.376 280.711L228.35 282.155C227.662 283.137 226.974 284.134 226.321 285.159C225.015 287.21 223.756 289.304 222.578 291.455C220.235 295.617 218.279 300.093 216.748 304.798C216.035 307.035 215.481 309.345 215.092 311.701C214.906 313.03 214.789 313.607 214.731 314.17C214.666 314.619 214.666 315.079 214.731 315.528C214.926 316.234 215.233 316.884 215.633 317.442C216.034 318 216.52 318.454 217.063 318.777C217.85 319.378 218.677 319.895 219.535 320.322C219.986 320.553 220.452 320.77 220.934 320.972C221.377 321.174 221.937 321.376 222.286 321.55V329.506C221.47 329.651 220.876 329.766 220.188 329.824C219.5 329.882 218.835 329.896 218.147 329.824C216.733 329.789 215.326 329.566 213.95 329.16C212.399 328.709 210.913 327.969 209.542 326.965C207.93 325.797 206.545 324.204 205.484 322.3C204.393 320.274 203.669 317.978 203.362 315.571C203.284 315.007 203.234 314.438 203.211 313.867C203.188 313.319 203.188 312.769 203.211 312.221V311.412C203.198 311.196 203.198 310.979 203.211 310.762L203.304 309.492C203.602 306.191 204.165 302.936 204.983 299.773C206.562 293.698 208.785 287.91 211.594 282.56C212.944 279.933 214.411 277.402 215.99 274.978C216.771 273.765 217.576 272.581 218.415 271.412C218.823 270.82 219.255 270.242 219.698 269.664C220.141 269.087 220.549 268.581 221.155 267.859L230.332 279.441Z" fill="#B55B52"/>
<path d="M219.967 321.376L225.4 316.437L228.49 330.271C228.49 330.271 223.675 332.481 220.002 329.506L219.967 321.376Z" fill="#B55B52"/>
<path d="M232.944 313.116L235.067 324.698L228.49 330.272L225.4 316.437L232.944 313.116Z" fill="#B55B52"/>
<path d="M267.306 226.357C267.061 227.209 267.236 228.061 267.691 228.249C268.146 228.436 268.705 227.916 268.939 227.064C269.172 226.212 269.009 225.346 268.565 225.158C268.122 224.971 267.551 225.49 267.306 226.357Z" fill="#263238"/>
<path d="M267.176 228.032C267.267 231.006 267.687 233.95 268.424 236.783C267.837 236.991 267.22 237.04 266.616 236.925C266.012 236.811 265.436 236.536 264.926 236.119L267.176 228.032Z" fill="#A02724"/>
<path d="M266.186 220.552C266.273 220.588 266.367 220.588 266.454 220.552C266.966 220.34 267.511 220.282 268.044 220.383C268.577 220.483 269.083 220.739 269.521 221.129C269.609 221.208 269.717 221.243 269.825 221.227C269.932 221.212 270.031 221.146 270.102 221.045C270.172 220.943 270.209 220.812 270.205 220.677C270.201 220.543 270.157 220.416 270.081 220.321C269.533 219.815 268.896 219.48 268.223 219.342C267.549 219.203 266.859 219.267 266.209 219.526C266.124 219.563 266.051 219.631 265.998 219.721C265.946 219.812 265.918 219.92 265.918 220.032C265.918 220.143 265.946 220.252 265.998 220.342C266.051 220.433 266.124 220.501 266.209 220.537L266.186 220.552Z" fill="#263238"/>
<path d="M241.736 229.505C243.042 237.722 244.336 252.783 239.695 258.271C239.695 258.271 241.514 266.603 253.851 266.603C267.411 266.603 260.334 258.271 260.334 258.271C252.929 256.076 253.116 249.274 254.41 242.891L241.736 229.505Z" fill="#B55B52"/>
<path d="M237.922 261.13C236.942 258.487 235.881 255.469 238.085 254.53C240.522 253.491 253.861 252.422 258.455 254.372C259.063 254.576 259.631 254.929 260.127 255.409C260.623 255.889 261.037 256.487 261.344 257.167C261.651 257.847 261.846 258.597 261.916 259.371C261.987 260.146 261.932 260.93 261.755 261.679L237.922 261.13Z" fill="#263238"/>
<path d="M284.505 275.224C287.361 281.592 290.428 288.148 293.529 294.444C296.631 300.74 299.884 307.008 303.359 312.726C304.222 314.17 305.12 315.542 306.006 316.914C306.449 317.622 306.915 318.199 307.37 318.849L308.046 319.802L308.221 320.048L308.303 320.163L308.384 320.293C308.928 320.944 309.581 321.437 310.297 321.737C311.399 322.212 312.535 322.555 313.69 322.762C319.358 323.471 325.072 323.389 330.725 322.517L332.497 330.17C330.923 331.037 329.454 331.615 327.891 332.337C326.329 333.059 324.79 333.535 323.227 334.026C319.916 335.055 316.52 335.617 313.107 335.701C311.19 335.74 309.277 335.502 307.405 334.994C305.107 334.428 302.94 333.234 301.062 331.499L300.281 330.705L300.094 330.503L299.977 330.358L299.756 330.084L298.846 328.972C298.252 328.235 297.599 327.528 297.062 326.748C295.896 325.232 294.8 323.715 293.786 322.156C289.712 316.059 285.954 309.649 282.534 302.964C280.832 299.672 279.192 296.346 277.614 292.986C276.028 289.592 274.5 286.271 273.02 282.69L284.505 275.224Z" fill="#B55B52"/>
<path d="M223.453 260.812C214.941 263.224 205.193 291.946 205.193 291.946L222.275 306.387C226.524 298.841 230.293 290.899 233.55 282.632C238.599 269.549 232.151 258.343 223.453 260.812Z" fill="#2F4D93"/>
<path opacity="0.2" d="M229.539 279.123L221.471 305.751L222.264 306.445C222.264 306.445 225.762 300.365 229.539 292.163V279.123Z" fill="black"/>
<path d="M274.291 261.375C274.291 261.375 283.945 274.892 274.827 358.503H226.287C225.96 349.275 230.636 304.278 223.453 260.798C228.817 259.518 234.243 258.67 239.696 258.256C246.569 257.758 253.46 257.758 260.334 258.256C265.045 258.844 269.711 259.886 274.291 261.375V261.375Z" fill="#2F4D93"/>
<path opacity="0.2" d="M268.891 285.563C270.157 295.053 273.468 303.944 278.475 311.297C278.673 305.91 278.755 301.073 278.743 296.755L268.891 285.563Z" fill="black"/>
<path d="M264.683 270.502C263.517 281.145 280.424 308.322 280.424 308.322L297.436 293.881C297.436 293.881 292.713 278.906 284.773 269.087C275.725 257.823 266.012 258.92 264.683 270.502Z" fill="#2F4D93"/>
<path d="M328.812 322.589L335.739 319.066L342.863 325.737C342.863 325.737 336.065 333.189 329.885 330.286L328.812 322.589Z" fill="#B55B52"/>
<path d="M340.309 318.719L345.532 323.34L342.827 325.737L335.703 319.066L340.309 318.719Z" fill="#B55B52"/>
<path d="M244.755 214.602C242.33 225.346 240.464 231.483 243.239 238.718C247.402 249.621 259.237 249.317 264.227 239.7C268.704 231.036 271.923 214.92 264.787 207.165C263.22 205.442 261.323 204.243 259.277 203.683C257.231 203.123 255.103 203.22 253.096 203.965C251.089 204.71 249.269 206.079 247.809 207.941C246.349 209.802 245.298 212.095 244.755 214.602V214.602Z" fill="#B55B52"/>
<path d="M263.224 214.718C259.726 227.05 255.61 240.595 245.559 238.025C239.076 236.364 238.563 223.44 236.231 217.562C234.168 212.407 234.296 202.039 238.563 201.909C236.651 198.472 246.317 185.894 252.917 192.537C254.608 189.649 266.792 181.143 275.817 194.645C284.317 207.411 280.155 218.053 263.224 214.718Z" fill="#263238"/>
<path d="M255.353 222.602C255.119 225.357 255.619 228.131 256.776 230.501C258.326 233.592 260.6 232.407 261.44 229.245C262.186 226.357 262.267 221.375 260.11 219.368C257.953 217.36 255.679 219.281 255.353 222.602Z" fill="#B55B52"/>
<path d="M329.838 508.137C331.004 508.137 332.17 507.935 332.508 507.285C332.604 507.113 332.656 506.909 332.656 506.7C332.656 506.491 332.604 506.287 332.508 506.115C332.353 505.811 332.112 505.59 331.832 505.494C330.316 504.989 327.168 507.227 327.016 507.328C326.976 507.353 326.944 507.393 326.925 507.443C326.906 507.493 326.901 507.549 326.911 507.602C326.919 507.654 326.938 507.702 326.967 507.74C326.996 507.779 327.033 507.806 327.074 507.819C327.986 508.025 328.911 508.131 329.838 508.137V508.137ZM331.284 505.956C331.419 505.933 331.556 505.933 331.692 505.956C331.78 505.977 331.863 506.021 331.936 506.086C332.008 506.151 332.068 506.235 332.112 506.332C332.263 506.664 332.217 506.823 332.112 506.909C331.692 507.646 329.395 507.66 327.704 507.357C328.813 506.607 330.028 506.131 331.284 505.956Z" fill="#2F4D93"/>
<path d="M327.098 507.819H327.191C328.287 507.212 330.456 504.786 330.281 503.487C330.281 503.184 330.071 502.823 329.488 502.736C329.279 502.713 329.068 502.743 328.868 502.822C328.668 502.901 328.482 503.029 328.322 503.198C327.156 504.368 326.923 507.4 326.912 507.53C326.907 507.576 326.913 507.623 326.927 507.666C326.941 507.709 326.964 507.747 326.993 507.776C327.025 507.799 327.061 507.814 327.098 507.819V507.819ZM329.314 503.27H329.442C329.827 503.27 329.85 503.516 329.862 503.573C329.967 504.339 328.486 506.245 327.366 507.068C327.459 505.797 327.866 504.591 328.532 503.617C328.75 503.386 329.028 503.263 329.314 503.27V503.27Z" fill="#2F4D93"/>
<path d="M316.547 507.559H325.618L327.682 481.523H318.611L316.547 507.559Z" fill="#B55B52"/>
<path d="M326.131 506.26H316.231C316.049 506.261 315.873 506.338 315.731 506.48C315.589 506.622 315.49 506.819 315.45 507.039L313.655 516.974C313.608 517.217 313.607 517.468 313.652 517.711C313.696 517.954 313.785 518.18 313.911 518.374C314.037 518.568 314.197 518.723 314.379 518.828C314.561 518.934 314.76 518.986 314.96 518.982C318.528 518.91 323.694 518.65 328.183 518.65C333.442 518.65 337.977 518.996 344.134 518.996C347.865 518.996 348.903 514.332 347.34 513.913C340.239 511.992 334.444 511.79 328.311 507.097C327.661 506.574 326.906 506.285 326.131 506.26Z" fill="#263238"/>
<path opacity="0.2" d="M327.67 481.537L326.62 494.952H317.537L318.598 481.537H327.67Z" fill="black"/>
<path d="M293.469 508.122C293.854 508.185 294.245 508.152 294.619 508.025C294.994 507.899 295.344 507.681 295.65 507.386C295.757 507.203 295.815 506.983 295.815 506.758C295.815 506.532 295.757 506.312 295.65 506.13C295.581 505.971 295.484 505.833 295.367 505.726C295.251 505.618 295.116 505.544 294.973 505.509C293.644 505.119 291.137 507.241 291.032 507.328C290.999 507.36 290.973 507.402 290.957 507.45C290.94 507.498 290.934 507.551 290.939 507.602C290.947 507.652 290.967 507.698 290.996 507.734C291.025 507.77 291.062 507.794 291.102 507.805C291.88 508.015 292.673 508.121 293.469 508.122V508.122ZM294.635 505.985C294.72 505.97 294.807 505.97 294.892 505.985C294.975 506 295.055 506.04 295.124 506.1C295.192 506.16 295.249 506.239 295.288 506.332C295.487 506.779 295.37 506.953 295.288 507.025C294.904 507.646 293.05 507.66 291.685 507.386C292.563 506.651 293.563 506.172 294.612 505.985H294.635Z" fill="#2F4D93"/>
<path d="M291.163 507.819H291.256C292.201 507.184 294.02 504.729 293.821 503.487C293.792 503.288 293.706 503.108 293.581 502.979C293.455 502.85 293.297 502.779 293.133 502.779C292.971 502.755 292.806 502.773 292.649 502.832C292.492 502.892 292.347 502.992 292.224 503.126C291.175 504.194 290.953 507.458 290.941 507.574C290.941 507.622 290.95 507.67 290.969 507.713C290.987 507.756 291.014 507.792 291.046 507.819C291.084 507.834 291.125 507.834 291.163 507.819V507.819ZM292.994 503.27H293.087C293.367 503.27 293.39 503.472 293.402 503.545C293.518 504.281 292.352 506.144 291.419 507.025C291.482 505.743 291.856 504.515 292.492 503.501C292.632 503.352 292.81 503.271 292.994 503.27V503.27Z" fill="#2F4D93"/>
<path d="M280.762 507.559H289.833L294.392 481.523H285.321L280.762 507.559Z" fill="#B55B52"/>
<path d="M290.473 506.26H280.282C280.101 506.261 279.926 506.34 279.787 506.482C279.647 506.623 279.55 506.82 279.513 507.039L277.717 516.975C277.675 517.218 277.678 517.471 277.725 517.713C277.773 517.956 277.864 518.182 277.992 518.374C278.119 518.567 278.28 518.722 278.463 518.827C278.646 518.932 278.845 518.985 279.046 518.982C282.603 518.91 284.34 518.65 288.817 518.65C291.581 518.65 295.114 518.996 298.927 518.996C302.739 518.996 303.229 514.332 301.667 513.913C294.671 512.021 294.193 509.408 291.954 506.909C291.541 506.476 291.014 506.245 290.473 506.26V506.26Z" fill="#263238"/>
<g opacity="0.2">
<path opacity="0.2" d="M285.322 481.537H294.394L292.038 494.952H282.967L285.322 481.537Z" fill="black"/>
</g>
<path d="M274.825 358.517C274.825 358.517 342.803 367.427 342.057 410.374C341.575 437.345 337.388 464.018 329.674 489.248H316.195C316.195 489.248 316.883 461.999 316.428 418.027C316.288 404.843 294.799 400.496 273.799 398.966C264.907 398.273 256.347 394.517 249.087 388.12C241.826 381.723 236.154 372.94 232.71 362.763L231.275 358.517H274.825Z" fill="#263238"/>
<path d="M332.975 484.772C333.045 484.772 332.101 492.671 332.101 492.671H313.445L312.932 485.624L332.975 484.772Z" fill="#2F4D93"/>
<path d="M260.276 358.517C260.276 358.517 309.551 378.734 310.798 403.803C313.13 449.927 294.813 489.248 294.813 489.248H281.205C281.205 489.248 286.371 469.754 288.201 427.962C290.533 375.471 211.444 427.876 226.263 358.517H260.276Z" fill="#263238"/>
<path d="M298.929 484.772C298.999 484.772 297.215 492.671 297.215 492.671H278.559L278.897 485.624L298.929 484.772Z" fill="#2F4D93"/>
<path d="M295.815 402.735H220.025C220.025 399.893 220.937 397.167 222.559 395.158C224.182 393.149 226.383 392.02 228.677 392.02H287.164C289.458 392.02 291.659 393.149 293.281 395.158C294.904 397.167 295.815 399.893 295.815 402.735V402.735Z" fill="#2F4D93"/>
<path d="M223.534 402.72L212.107 521.364H214.556L229.049 402.72H223.534Z" fill="#2F4D93"/>
<path opacity="0.4" d="M223.534 402.72L212.107 521.364H214.556L229.049 402.72H223.534Z" fill="black"/>
<path d="M238.821 402.72L238.6 521.364H241.037L244.336 402.72H238.821Z" fill="#2F4D93"/>
<path opacity="0.4" d="M238.821 402.72L238.6 521.364H241.037L244.336 402.72H238.821Z" fill="black"/>
<path d="M292.304 402.72L303.731 521.364H301.283L286.801 402.72H292.304Z" fill="#2F4D93"/>
<path opacity="0.4" d="M292.304 402.72L303.731 521.364H301.283L286.801 402.72H292.304Z" fill="black"/>
<path d="M277.017 402.72L277.239 521.364H274.802L271.502 402.72H277.017Z" fill="#2F4D93"/>
<path opacity="0.4" d="M277.017 402.72L277.239 521.364H274.802L271.502 402.72H277.017Z" fill="black"/>
</svg>
